<svg width="18" height="20" viewBox="0 0 18 20" fill="none" xmlns="http://www.w3.org/2000/svg">
<path d="M11.9958 17.4167V14.4167C12.1001 13.4771 11.8308 12.5343 11.2458 11.7917C13.4958 11.7917 15.7458 10.2917 15.7458 7.66667C15.8058 6.72917 15.5433 5.80667 14.9958 5.04167C15.2058 4.17917 15.2058 3.27917 14.9958 2.41667C14.9958 2.41667 14.2458 2.41667 12.7458 3.54167C10.7658 3.16667 8.7258 3.16667 6.7458 3.54167C5.2458 2.41667 4.4958 2.41667 4.4958 2.41667C4.2708 3.27917 4.2708 4.17917 4.4958 5.04167C3.94971 5.80358 3.68466 6.73126 3.7458 7.66667C3.7458 10.2917 5.9958 11.7917 8.2458 11.7917C7.9533 12.1592 7.7358 12.5792 7.6083 13.0292C7.4808 13.4792 7.4433 13.9517 7.4958 14.4167M7.4958 14.4167V17.4167M7.4958 14.4167C4.1133 15.9167 3.7458 12.9167 2.2458 12.9167" stroke="#0AE98A" stroke-width="2" stroke-linecap="round" stroke-linejoin="round"/>
</svg>
